{
  "accessors": [
    {
      "bufferView": 3,
      "componentType": 5126,
      "count": 1395,
      "max": [
        103.3340072631836,
        187.55401611328125,
        138.67202758789063
      ],
      "min": [
        -73.51639556884766,
        0.5220050811767578,
        -177.40499877929688
      ],
      "type": "VEC3"
    },
    {
      "bufferView": 3,
      "byteOffset": 16740,
      "componentType": 5126,
      "count": 1395,
      "max": [
        0.9999721646308899,
        0.9998165965080261,
        0.985454261302948
      ],
      "min": [
        -0.9999721646308899,
        -0.9983611702919006,
        -0.9898865222930908
      ],
      "type": "VEC3"
    },
    {
      "bufferView": 2,
      "componentType": 5126,
      "count": 1395,
      "max": [
        1.995609998703003,
        0.9941129684448242
      ],
      "min": [
        0.011861969716846943,
        0.0067039718851447105
      ],
      "type": "VEC2"
    },
    {
      "bufferView": 1,
      "componentType": 5125,
      "count": 5916,
      "type": "SCALAR"
    },
    {
      "bufferView": 5,
      "componentType": 5126,
      "count": 40,
      "max": [
        1.0,
        7.105428204633949e-15,
        1.0,
        0.0,
        0.8191667199134827,
        1.0,
        1.0,
        0.0,
        1.9530492068042804e-07,
        0.0,
        1.0,
        0.0,
        165.06729125976563,
        134.7500457763672,
        88.66841888427734,
        1.0
      ],
      "min": [
        -1.0,
        -7.105428204633949e-15,
        -0.8191667199134827,
        0.0,
        -1.0,
        2.384189770054945e-07,
        -1.0,
        0.0,
        -2.3841900542720396e-07,
        -1.0000001192092896,
        -2.3841900542720396e-07,
        0.0,
        -83.84817504882813,
        -134.61764526367188,
        -88.66859436035156,
        1.0
      ],
      "type": "MAT4"
    },
    {
      "bufferView": 0,
      "componentType": 5123,
      "count": 1395,
      "type": "VEC4"
    },
    {
      "bufferView": 4,
      "componentType": 5126,
      "count": 1395,
      "max": [
        1.0,
        0.5,
        0.3333333432674408,
        0.0
      ],
      "min": [
        0.3333333432674408,
        0.0,
        0.0,
        0.0
      ],
      "type": "VEC4"
    }
  ],
  "asset": {
    "extras": {
      "author": "gn434038 (https://sketchfab.com/gn434038)",
      "license": "CC-BY-4.0 (http://creativecommons.org/licenses/by/4.0/)",
      "source": "https://sketchfab.com/3d-models/nemo-finding-nemo-82642f921520410cac2abce8f48a0cc5",
      "title": "Nemo (Finding Nemo)"
    },
    "generator": "Sketchfab-15.19.0",
    "version": "2.0"
  },
  "bufferViews": [
    {
      "buffer": 0,
      "byteLength": 11160,
      "byteStride": 8,
      "name": "shortBufferViews",
      "target": 34962
    },
    {
      "buffer": 0,
      "byteLength": 23664,
      "byteOffset": 11160,
      "name": "floatBufferViews",
      "target": 34963
    },
    {
      "buffer": 0,
      "byteLength": 11160,
      "byteOffset": 34824,
      "byteStride": 8,
      "name": "floatBufferViews",
      "target": 34962
    },
    {
      "buffer": 0,
      "byteLength": 33480,
      "byteOffset": 45984,
      "byteStride": 12,
      "name": "floatBufferViews",
      "target": 34962
    },
    {
      "buffer": 0,
      "byteLength": 22320,
      "byteOffset": 79464,
      "byteStride": 16,
      "name": "floatBufferViews",
      "target": 34962
    },
    {
      "buffer": 0,
      "byteLength": 2560,
      "byteOffset": 101784,
      "name": "floatBufferViews"
    }
  ],
  "buffers": [
    {
      "byteLength": 104344,
      "uri": "scene.bin"
    }
  ],
  "images": [
    {
      "uri": "textures/nemo_diff_png_baseColor.png"
    }
  ],
  "materials": [
    {
      "doubleSided": true,
      "name": "nemo_diff_png",
      "pbrMetallicRoughness": {
        "baseColorTexture": {
          "index": 0
        },
        "metallicFactor": 0.0,
        "roughnessFactor": 0.5
      }
    }
  ],
  "meshes": [
    {
      "name": "Object_0",
      "primitives": [
        {
          "attributes": {
            "JOINTS_0": 5,
            "NORMAL": 1,
            "POSITION": 0,
            "TEXCOORD_0": 2,
            "WEIGHTS_0": 6
          },
          "indices": 3,
          "material": 0,
          "mode": 4
        }
      ]
    }
  ],
  "nodes": [
    {
      "children": [
        1
      ],
      "matrix": [
        1.0,
        0.0,
        0.0,
        0.0,
        0.0,
        2.220446049250313e-16,
        -1.0,
        0.0,
        0.0,
        1.0,
        2.220446049250313e-16,
        0.0,
        0.0,
        0.0,
        0.0,
        1.0
      ],
      "name": "Sketchfab_model"
    },
    {
      "children": [
        2
      ],
      "name": "root"
    },
    {
      "children": [
        3
      ],
      "matrix": [
        1.0,
        0.0,
        0.0,
        0.0,
        0.0,
        2.220446049250313e-16,
        1.0,
        0.0,
        0.0,
        -1.0,
        2.220446049250313e-16,
        0.0,
        0.0,
        0.0,
        0.0,
        1.0
      ],
      "name": "GLTF_SceneRootNode"
    },
    {
      "children": [
        4
      ],
      "name": "Armature_42"
    },
    {
      "children": [
        5,
        7,
        6
      ],
      "name": "GLTF_created_0"
    },
    {
      "children": [
        8,
        14
      ],
      "name": "GLTF_created_0_rootJoint"
    },
    {
      "name": "nemo_lod0_41"
    },
    {
      "mesh": 0,
      "name": "Object_7",
      "skin": 0
    },
    {
      "children": [
        9,
        10,
        11
      ],
      "name": "Bip001_Tail_7",
      "rotation": [
        -0.5000013709068298,
        0.49999868869781494,
        -0.49999868869781494,
        0.5000013113021851
      ],
      "translation": [
        2.2752175937057473e-05,
        75.84955596923828,
        -18.274322509765625
      ]
    },
    {
      "name": "Bip001_Fin_Bottom_Back_2",
      "rotation": [
        0.0,
        1.4901162330716033e-06,
        0.0,
        1.0
      ],
      "translation": [
        39.432456970214844,
        29.866493225097656,
        -1.8093633116222918e-05
      ]
    },
    {
      "name": "Bip001_Fin_Top_back_3",
      "rotation": [
        0.0,
        -2.5033950805664063e-06,
        0.0,
        1.0
      ],
      "translation": [
        -41.61406707763672,
        35.42522048950195,
        9.12085160962306e-05
      ]
    },
    {
      "children": [
        12
      ],
      "name": "Bip001_Tail02_6",
      "translation": [
        0.0006408692570403218,
        37.384803771972656,
        -1.000224074232392e-06
      ]
    },
    {
      "children": [
        13
      ],
      "name": "Bip001_Tail03_5",
      "translation": [
        0.0019683837890625,
        38.23870086669922,
        -6.930349627509713e-10
      ]
    },
    {
      "name": "Bip001_Tail04_4",
      "translation": [
        -0.00281524658203125,
        40.719818115234375,
        8.985807653516531e-10
      ]
    },
    {
      "children": [
        15,
        16,
        17,
        45
      ],
      "name": "Bip001_Pelvis_40",
      "rotation": [
        -0.5000003576278687,
        0.4999997019767761,
        -0.4999997019767761,
        0.5000002980232239
      ],
      "translation": [
        5.580266588367522e-05,
        80.03289031982422,
        2.1315298080444336
      ]
    },
    {
      "name": "Bip001_Fin_Botton_L_8",
      "rotation": [
        0.0,
        0.953713595867157,
        0.0,
        0.3007164001464844
      ],
      "scale": [
        1.0,
        0.9999999403953552,
        1.0
      ],
      "translation": [
        61.265785217285156,
        -20.815765380859375,
        12.571099281311035
      ]
    },
    {
      "name": "Bip001_Fin_Botton_R_9",
      "rotation": [
        0.0,
        -0.9537206292152405,
        0.0,
        0.3006941080093384
      ],
      "scale": [
        0.9999998807907104,
        1.0,
        0.9999998807907104
      ],
      "translation": [
        61.265743255615234,
        -20.815828323364258,
        -12.57115650177002
      ]
    },
    {
      "children": [
        18,
        20,
        22
      ],
      "name": "Bip001_Spine_37",
      "rotation": [
        0.0,
        9.5367431640625e-07,
        0.0,
        1.0
      ],
      "translation": [
        -0.0244140625,
        -18.579696655273438,
        -9.271442831959575e-05
      ]
    },
    {
      "children": [
        19
      ],
      "name": "Bip001_Fin_L_11",
      "rotation": [
        0.0,
        -0.8266237378120422,
        0.0,
        0.5627549886703491
      ],
      "scale": [
        0.9999999403953552,
        1.0,
        0.9999999403953552
      ],
      "translation": [
        22.465377807617188,
        -15.715194702148438,
        47.613521575927734
      ]
    },
    {
      "name": "Bip001_Fin_L02_10",
      "rotation": [
        0.0,
        1.043081283569336e-07,
        0.0,
        1.0
      ],
      "translation": [
        18.4359130859375,
        10.106422424316406,
        -9.418510437011719
      ]
    },
    {
      "children": [
        21
      ],
      "name": "Bip001_Fin_R_13",
      "rotation": [
        0.0,
        0.8025124073028564,
        0.0,
        0.5966355800628662
      ],
      "scale": [
        1.0000001192092896,
        0.9999999403953552,
        1.0000001192092896
      ],
      "translation": [
        22.473262786865234,
        -15.715015411376953,
        -47.61356735229492
      ]
    },
    {
      "name": "Bip001_Fin_R02_12",
      "rotation": [
        0.0,
        1.4901159417490817e-08,
        0.0,
        1.0
      ],
      "scale": [
        1.0000001192092896,
        1.0,
        1.0000001192092896
      ],
      "translation": [
        10.818672180175781,
        5.888847351074219,
        5.715078353881836
      ]
    },
    {
      "children": [
        23,
        24,
        25,
        26,
        27,
        28,
        29,
        30,
        31,
        32,
        33,
        34,
        35,
        40,
        41,
        42,
        43,
        44
      ],
      "name": "Bip001_Head_36",
      "rotation": [
        0.0,
        2.842170943040401e-14,
        0.0,
        1.0
      ],
      "translation": [
        0.02445220947265625,
        -38.27309036254883,
        -8.829374564811587e-09
      ]
    },
    {
      "name": "Bip001_Eye_L_14",
      "rotation": [
        0.0,
        -0.70710688829422,
        0.0,
        0.7071066498756409
      ],
      "scale": [
        1.0,
        0.9999999403953552,
        1.0
      ],
      "translation": [
        -8.635748863220215,
        -39.82539749145508,
        22.362430572509766
      ]
    },
    {
      "name": "Bip001_Eyelid_Top_L_15",
      "rotation": [
        0.0,
        -0.17213144898414612,
        0.0,
        0.985073983669281
      ],
      "scale": [
        0.9999999403953552,
        1.0,
        0.9999999403953552
      ],
      "translation": [
        -8.26944637298584,
        -39.87797927856445,
        21.794492721557617
      ]
    },
    {
      "name": "Bip001_Eyelid_Bottom_L_16",
      "rotation": [
        0.0,
        -0.030404772609472275,
        0.0,
        0.9995377063751221
      ],
      "scale": [
        0.9999999403953552,
        1.0,
        0.9999999403953552
      ],
      "translation": [
        -8.269362449645996,
        -39.89510726928711,
        21.798368453979492
      ]
    },
    {
      "name": "Bip001_Eye_R_17",
      "rotation": [
        0.0,
        0.7071071863174438,
        0.0,
        0.7071064710617065
      ],
      "scale": [
        1.0,
        0.9999999403953552,
        1.0
      ],
      "translation": [
        -8.635590553283691,
        -39.82539749145508,
        -22.36239242553711
      ]
    },
    {
      "name": "Bip001_Eyebrow_1_L_18",
      "rotation": [
        0.0,
        -0.15674294531345367,
        0.0,
        0.9876394271850586
      ],
      "translation": [
        -36.512271881103516,
        -53.611148834228516,
        8.880681991577148
      ]
    },
    {
      "name": "Bip001_Eyebrow_1_R_19",
      "rotation": [
        0.0,
        0.15674400329589844,
        0.0,
        0.9876392483711243
      ],
      "translation": [
        -36.5123405456543,
        -53.61124801635742,
        -8.880788803100586
      ]
    },
    {
      "name": "Bip001_Eyebrow_2_L_20",
      "rotation": [
        0.0,
        -0.22483915090560913,
        0.0,
        0.9743959307670593
      ],
      "translation": [
        -35.68682098388672,
        -47.20228958129883,
        25.927867889404297
      ]
    },
    {
      "name": "Bip001_Eyebrow_2_R_21",
      "rotation": [
        0.0,
        0.22484013438224792,
        0.0,
        0.9743956923484802
      ],
      "translation": [
        -35.686439514160156,
        -47.20243453979492,
        -25.927873611450195
      ]
    },
    {
      "name": "Bip001_Eyebrow_3_L_22",
      "rotation": [
        0.0,
        -0.1715221256017685,
        0.0,
        0.9851802587509155
      ],
      "translation": [
        -28.1968936920166,
        -37.076595306396484,
        37.4044303894043
      ]
    },
    {
      "name": "Bip001_Eyebrow_3_R_23",
      "rotation": [
        0.0,
        0.17152363061904907,
        0.0,
        0.9851800203323364
      ],
      "translation": [
        -28.196805953979492,
        -37.07667922973633,
        -37.404361724853516
      ]
    },
    {
      "name": "Bip001_Eyelid_Bottom_R_24",
      "rotation": [
        0.0,
        0.0304048303514719,
        0.0,
        0.9995377063751221
      ],
      "scale": [
        0.9999999403953552,
        1.0,
        0.9999999403953552
      ],
      "translation": [
        -8.269364356994629,
        -39.895137786865234,
        -21.798337936401367
      ]
    },
    {
      "name": "Bip001_Eyelid_Top_R_25",
      "rotation": [
        0.0,
        0.1721344292163849,
        0.0,
        0.985073447227478
      ],
      "scale": [
        0.9999999403953552,
        1.0,
        0.9999999403953552
      ],
      "translation": [
        -8.269524574279785,
        -39.87796401977539,
        -21.794443130493164
      ]
    },
    {
      "children": [
        36,
        37,
        38,
        39
      ],
      "name": "Bip001_Jaw_30",
      "translation": [
        24.032257080078125,
        -47.89852523803711,
        2.2253771021496505e-06
      ]
    },
    {
      "name": "Bip001_Teeth_bottom_26",
      "translation": [
        4.699378967285156,
        -4.8704681396484375,
        -8.757573959883302e-05
      ]
    },
    {
      "name": "Bip001_Mouth_Center_Bottom_27",
      "translation": [
        3.806507110595703,
        -23.100082397460938,
        -3.2711577659938484e-06
      ]
    },
    {
      "name": "Bip001_Mouth_Bottom_L_28",
      "rotation": [
        0.0,
        -0.3077186942100525,
        0.0,
        0.9514773488044739
      ],
      "scale": [
        0.9999999403953552,
        1.0,
        0.9999999403953552
      ],
      "translation": [
        4.826198101043701,
        -20.910964965820313,
        7.998356342315674
      ]
    },
    {
      "name": "Bip001_Mouth_Bottom_R_29",
      "rotation": [
        0.0,
        0.30767592787742615,
        0.0,
        0.9514912366867065
      ],
      "scale": [
        0.9999999403953552,
        1.0,
        0.9999999403953552
      ],
      "translation": [
        4.826348781585693,
        -20.909881591796875,
        -7.998021125793457
      ]
    },
    {
      "name": "Bip001_Mouth_Center_Top_31",
      "translation": [
        20.943012237548828,
        -75.76573181152344,
        5.45542934560217e-06
      ]
    },
    {
      "name": "Bip001_Mouth_Corner_L_32",
      "rotation": [
        0.0,
        -0.3557911813259125,
        0.0,
        0.9345654845237732
      ],
      "translation": [
        24.953433990478516,
        -63.19240951538086,
        17.336868286132813
      ]
    },
    {
      "name": "Bip001_Mouth_Corner_R_33",
      "rotation": [
        0.0,
        0.35579073429107666,
        0.0,
        0.9345656633377075
      ],
      "translation": [
        24.953659057617188,
        -63.19246292114258,
        -17.33681869506836
      ]
    },
    {
      "name": "Bip001_Mouth_Mid_Top_L_34",
      "rotation": [
        0.0,
        -0.27632153034210205,
        0.0,
        0.9610652327537537
      ],
      "scale": [
        0.9999999403953552,
        1.0,
        0.9999999403953552
      ],
      "translation": [
        21.439987182617188,
        -71.08883666992188,
        8.972784996032715
      ]
    },
    {
      "name": "Bip001_Mouth_Mid_Top_R_35",
      "rotation": [
        0.0,
        0.2763220965862274,
        0.0,
        0.9610650539398193
      ],
      "translation": [
        21.440046310424805,
        -71.08876037597656,
        -8.972599983215332
      ]
    },
    {
      "children": [
        46
      ],
      "name": "Bip001_Fin_Top_39",
      "rotation": [
        0.0,
        -8.046627044677734e-06,
        0.0,
        1.0
      ],
      "translation": [
        -64.48033905029297,
        -2.9248833656311035,
        -5.820734077133238e-05
      ]
    },
    {
      "name": "Bip001_Fin_Top02_38",
      "rotation": [
        0.0,
        2.0265574676159304e-06,
        0.0,
        1.0
      ],
      "translation": [
        -20.554061889648438,
        5.512125492095947,
        0.0003657519700936973
      ]
    }
  ],
  "samplers": [
    {
      "magFilter": 9729,
      "minFilter": 9987,
      "wrapS": 10497,
      "wrapT": 10497
    }
  ],
  "scene": 0,
  "scenes": [
    {
      "name": "Sketchfab_Scene",
      "nodes": [
        0
      ]
    }
  ],
  "skins": [
    {
      "inverseBindMatrices": 4,
      "joints": [
        5,
        8,
        9,
        10,
        11,
        12,
        13,
        14,
        15,
        16,
        17,
        18,
        19,
        20,
        21,
        22,
        23,
        24,
        25,
        26,
        27,
        28,
        29,
        30,
        31,
        32,
        33,
        34,
        35,
        36,
        37,
        38,
        39,
        40,
        41,
        42,
        43,
        44,
        45,
        46
      ],
      "skeleton": 5
    }
  ],
  "textures": [
    {
      "sampler": 0,
      "source": 0
    }
  ]
}
