{
  "accessors": [
    {
      "bufferView": 2,
      "componentType": 5126,
      "count": 13678,
      "max": [
        0.17789700627326965,
        0.0631370022892952,
        0.20412899553775787
      ],
      "min": [
        -0.15180499851703644,
        -0.061358001083135605,
        -0.000446999998530373
      ],
      "type": "VEC3"
    },
    {
      "bufferView": 2,
      "byteOffset": 164136,
      "componentType": 5126,
      "count": 13678,
      "max": [
        0.9999629259109497,
        0.9999947547912598,
        0.9998844861984253
      ],
      "min": [
        -0.9999507665634155,
        -0.9998950958251953,
        -0.999971866607666
      ],
      "type": "VEC3"
    },
    {
      "bufferView": 3,
      "componentType": 5126,
      "count": 13678,
      "max": [
        0.9996706247329712,
        0.9988021850585938,
        0.999974250793457,
        1.0
      ],
      "min": [
        -0.9999808073043823,
        -0.9999970197677612,
        -0.9999691247940063,
        -1.0
      ],
      "type": "VEC4"
    },
    {
      "bufferView": 1,
      "componentType": 5126,
      "count": 13678,
      "max": [
        0.9990230202674866,
        0.9838640093803406
      ],
      "min": [
        0.0009769999887794256,
        0.0009769999887794256
      ],
      "type": "VEC2"
    },
    {
      "bufferView": 0,
      "componentType": 5125,
      "count": 72954,
      "type": "SCALAR"
    }
  ],
  "asset": {
    "extras": {
      "author": "inciprocal (https://sketchfab.com/inciprocal.com)",
      "license": "CC-BY-4.0 (http://creativecommons.org/licenses/by/4.0/)",
      "source": "https://sketchfab.com/3d-models/wolverine-work-boot-25a1d798e17e44dfa9a1e96ec9dbadbf",
      "title": "Wolverine Work Boot"
    },
    "generator": "Sketchfab-12.65.0",
    "version": "2.0"
  },
  "bufferViews": [
    {
      "buffer": 0,
      "byteLength": 291816,
      "name": "floatBufferViews",
      "target": 34963
    },
    {
      "buffer": 0,
      "byteLength": 109424,
      "byteOffset": 291816,
      "byteStride": 8,
      "name": "floatBufferViews",
      "target": 34962
    },
    {
      "buffer": 0,
      "byteLength": 328272,
      "byteOffset": 401240,
      "byteStride": 12,
      "name": "floatBufferViews",
      "target": 34962
    },
    {
      "buffer": 0,
      "byteLength": 218848,
      "byteOffset": 729512,
      "byteStride": 16,
      "name": "floatBufferViews",
      "target": 34962
    }
  ],
  "buffers": [
    {
      "byteLength": 948360,
      "uri": "scene.bin"
    }
  ],
  "extensionsRequired": [
    "KHR_materials_pbrSpecularGlossiness"
  ],
  "extensionsUsed": [
    "KHR_materials_pbrSpecularGlossiness"
  ],
  "images": [
    {
      "uri": "textures/sh_wolverineBoot2_diffuse.jpeg"
    },
    {
      "uri": "textures/sh_wolverineBoot2_specularGlossiness.png"
    },
    {
      "uri": "textures/sh_wolverineBoot2_normal.jpeg"
    },
    {
      "uri": "textures/sh_wolverineBoot2_occlusion.png"
    }
  ],
  "materials": [
    {
      "doubleSided": true,
      "extensions": {
        "KHR_materials_pbrSpecularGlossiness": {
          "diffuseFactor": [
            0.6766092698,
            0.6766092698,
            0.6766092698,
            1.0
          ],
          "diffuseTexture": {
            "index": 0
          },
          "glossinessFactor": 1.0,
          "specularFactor": [
            0.3726006117,
            0.3726006117,
            0.3726006117
          ],
          "specularGlossinessTexture": {
            "index": 1
          }
        }
      },
      "name": "sh_wolverineBoot2",
      "normalTexture": {
        "index": 2
      },
      "occlusionTexture": {
        "index": 3
      }
    }
  ],
  "meshes": [
    {
      "name": "Object_0",
      "primitives": [
        {
          "attributes": {
            "NORMAL": 1,
            "POSITION": 0,
            "TANGENT": 2,
            "TEXCOORD_0": 3
          },
          "indices": 4,
          "material": 0,
          "mode": 4
        }
      ]
    }
  ],
  "nodes": [
    {
      "children": [
        1
      ],
      "matrix": [
        0.8747625350952148,
        -1.0759213004604606e-16,
        0.48455187678337097,
        0.0,
        0.48455187678337097,
        1.9423630150843581e-16,
        -0.8747625350952148,
        0.0,
        0.0,
        1.0,
        2.220446049250313e-16,
        0.0,
        -0.02598271705210209,
        -4.619759053355582e-18,
        0.020805545151233673,
        1.0
      ],
      "name": "Sketchfab_model"
    },
    {
      "children": [
        2
      ],
      "name": "sh_wolverineBoot2.obj.cleaner.materialmerger.gles"
    },
    {
      "mesh": 0,
      "name": "Object_2"
    }
  ],
  "samplers": [
    {
      "magFilter": 9729,
      "minFilter": 9987,
      "wrapS": 10497,
      "wrapT": 10497
    }
  ],
  "scene": 0,
  "scenes": [
    {
      "name": "Sketchfab_Scene",
      "nodes": [
        0
      ]
    }
  ],
  "textures": [
    {
      "sampler": 0,
      "source": 0
    },
    {
      "sampler": 0,
      "source": 1
    },
    {
      "sampler": 0,
      "source": 2
    },
    {
      "sampler": 0,
      "source": 3
    }
  ]
}
