{
  "accessors": [
    {
      "bufferView": 2,
      "componentType": 5126,
      "count": 9943,
      "max": [
        1.7133300304412842,
        0.9052199721336365,
        31.79547119140625
      ],
      "min": [
        -0.4186759889125824,
        -0.5116530060768127,
        -17.973270416259766
      ],
      "type": "VEC3"
    },
    {
      "bufferView": 2,
      "byteOffset": 119316,
      "componentType": 5126,
      "count": 9943,
      "max": [
        1.0,
        1.0,
        1.0
      ],
      "min": [
        -1.0,
        -1.0,
        -1.0
      ],
      "type": "VEC3"
    },
    {
      "bufferView": 1,
      "componentType": 5126,
      "count": 9943,
      "max": [
        0.9069650173187256,
        0.9966359734535217
      ],
      "min": [
        0.002633000025525689,
        0.0010649999603629112
      ],
      "type": "VEC2"
    },
    {
      "bufferView": 0,
      "componentType": 5125,
      "count": 32910,
      "type": "SCALAR"
    },
    {
      "bufferView": 2,
      "byteOffset": 238632,
      "componentType": 5126,
      "count": 2872,
      "max": [
        1.7336269617080688,
        0.47450000047683716,
        31.736652374267578
      ],
      "min": [
        -0.2019760012626648,
        -0.47381699085235596,
        -17.975549697875977
      ],
      "type": "VEC3"
    },
    {
      "bufferView": 2,
      "byteOffset": 273096,
      "componentType": 5126,
      "count": 2872,
      "max": [
        1.0,
        1.0,
        1.0
      ],
      "min": [
        -1.0,
        -1.0,
        -1.0
      ],
      "type": "VEC3"
    },
    {
      "bufferView": 1,
      "byteOffset": 79544,
      "componentType": 5126,
      "count": 2872,
      "max": [
        0.9596819877624512,
        0.9303659796714783
      ],
      "min": [
        0.40584099292755127,
        0.00928100012242794
      ],
      "type": "VEC2"
    },
    {
      "bufferView": 0,
      "byteOffset": 131640,
      "componentType": 5125,
      "count": 10539,
      "type": "SCALAR"
    }
  ],
  "asset": {
    "extras": {
      "author": "Emiliano.Herrera.Galindo (https://sketchfab.com/Emiliano.Herrera.Galindo)",
      "license": "CC-BY-4.0 (http://creativecommons.org/licenses/by/4.0/)",
      "source": "https://sketchfab.com/3d-models/fishing-rod-9e1061ea5d5a4d508d6b99a87a6690f9",
      "title": "Fishing Rod"
    },
    "generator": "Sketchfab-12.68.0",
    "version": "2.0"
  },
  "bufferViews": [
    {
      "buffer": 0,
      "byteLength": 173796,
      "name": "floatBufferViews",
      "target": 34963
    },
    {
      "buffer": 0,
      "byteLength": 102520,
      "byteOffset": 173796,
      "byteStride": 8,
      "name": "floatBufferViews",
      "target": 34962
    },
    {
      "buffer": 0,
      "byteLength": 307560,
      "byteOffset": 276316,
      "byteStride": 12,
      "name": "floatBufferViews",
      "target": 34962
    }
  ],
  "buffers": [
    {
      "byteLength": 583876,
      "uri": "scene.bin"
    }
  ],
  "images": [
    {
      "uri": "textures/aiAmbientOcclusion1SG_baseColor.png"
    },
    {
      "uri": "textures/aiAmbientOcclusion1SG_metallicRoughness.png"
    }
  ],
  "materials": [
    {
      "doubleSided": true,
      "name": "aiAmbientOcclusion1SG",
      "pbrMetallicRoughness": {
        "baseColorTexture": {
          "index": 0
        },
        "metallicRoughnessTexture": {
          "index": 1
        },
        "roughnessFactor": 0.9137360232019408
      }
    }
  ],
  "meshes": [
    {
      "name": "Object_0",
      "primitives": [
        {
          "attributes": {
            "NORMAL": 1,
            "POSITION": 0,
            "TEXCOORD_0": 2
          },
          "indices": 3,
          "material": 0,
          "mode": 4
        }
      ]
    },
    {
      "name": "Object_1",
      "primitives": [
        {
          "attributes": {
            "NORMAL": 5,
            "POSITION": 4,
            "TEXCOORD_0": 6
          },
          "indices": 7,
          "material": 0,
          "mode": 4
        }
      ]
    }
  ],
  "nodes": [
    {
      "children": [
        1
      ],
      "matrix": [
        1.0,
        0.0,
        0.0,
        0.0,
        0.0,
        2.220446049250313e-16,
        -1.0,
        0.0,
        0.0,
        1.0,
        2.220446049250313e-16,
        0.0,
        0.0,
        0.0,
        0.0,
        1.0
      ],
      "name": "Sketchfab_model"
    },
    {
      "children": [
        2,
        3
      ],
      "name": "Fishing rod.obj.cleaner.materialmerger.gles"
    },
    {
      "mesh": 0,
      "name": "Object_2"
    },
    {
      "mesh": 1,
      "name": "Object_3"
    }
  ],
  "samplers": [
    {
      "magFilter": 9729,
      "minFilter": 9987,
      "wrapS": 10497,
      "wrapT": 10497
    }
  ],
  "scene": 0,
  "scenes": [
    {
      "name": "Sketchfab_Scene",
      "nodes": [
        0
      ]
    }
  ],
  "textures": [
    {
      "sampler": 0,
      "source": 0
    },
    {
      "sampler": 0,
      "source": 1
    }
  ]
}
